<svg xmlns="http://www.w3.org/2000/svg" width="60" height="60"><path fill-rule="evenodd" d="M51.55 49.674a33.29 33.29 0 0 1 2.348 1.738c2.428 1.989 3.372 3.555 2.973 4.929-.399 1.375-2.037 2.195-5.153 2.579-1.601 1.06-3.211.26-4.821.246-1.329 0-2.773-.041-4.309.234-6.595-.725-14.368-1.853-18.481-3.043-4.278-1.239-6.63-2.545-7.862-4.368a5.677 5.677 0 0 1-.937-2.514 37.777 37.777 0 0 1-2.131 2.15c-2.644 3.145-4.902 3.687-6.73 3.687a3.65 3.65 0 0 1-1.018-.139c-2.225-.645-3.677-2.26-3.699-3.603-.011-1.421 1.06-3.424 4.15-5.057-1.537-.295-2.254-.652-2.936-1.071C.6 43.601.99 41.455.329 39.978c.276-1.026.937-1.248 1.846-2.456V15.585c.001-.219.072-.432.203-.608l5.887-7.838V1.394C8.265.835 8.72.382 9.28.382h18.27c.561 0 1.015.453 1.015 1.013v5.744l5.887 7.838c.131.176.202.389.203.608v6.014c1.94.044 4.318.772 7.104 2.841l.151-.074c.012-2.082-.589-3.732-1.18-5.196-.931-2.702-1.89-5.332-.328-8.8.223-.876.865-1.113 1.391-.85.474.237.687.799.485 1.288-1.148 3.064-.539 5.052.36 7.515.518 1.421 1.069 2.934 1.25 5.347 3.792-2.678 6.68-2.211 8.557-1.311 4.539 2.18 6.715 8.35 6.715 13.498 0 5.68-3.199 11.623-7.61 13.817Zm-33.623 1.182c.931 1.378 3.012 2.474 6.746 3.555 2.592.75 6.708 1.475 11.046 1.99l.808-2.781c.156.2.719-.847 1.257-.692.538.922.848.718.692 1.257l-.708 2.442c1.665.167 3.333.301 4.933.543 9.53.374 12.08-.903 12.221-1.392.388-.377-.742-1.916-4.966-4.328l-.6 1.662c-.157.538-.719.847-.376.691-1.42-.155-1.73.047-1.574-1.255l.766-2.643a82.776 82.776 0 0 0-2.914-1.7c-4.459-2.484-9.751-4.951-13.743-6.447l-2.223 7.658c-.156.537-.719.847-.942.692-.854-.157-1.164-.719-1.007-1.257l2.254-7.031c-.338-.849-.664-.95-.969-1.039-2.287-.661-4.052-.987-5.428-.987-.871 0-1.585.131-1.96.389-1.607.608-2.55 2.065-3.364 5.387a21.63 21.63 0 0 0 .051 5.286Zm-.503-13.861c.277 1.415.49 2.625 1.306 2.952-.084-.703.649-1.259 1.481-1.621.076-.034.155-.066.234-.097V24.707H4.205l.001 12.132c.404-.056.984-.084 1.221-.083h.038c.801.011 2.165.092 2.385.241-1.667-2.897-.899-4.872-.404-5.634 1.013-1.556 3.105-2.145 5.331-1.501 1.983.574 3.547 2.974 4.647 7.133ZM2.278 40.542c-.57 1.965 1.384 3.566 5.976 4.895a1.013 1.013 0 0 1 .024 1.941c-3.352 1.056-4.531 2.581-4.519 3.952.011.646.888 1.506 2.235 1.895h.001c2.197.637 6.782-3.647 9.422-6.975l1.02-3.516c-.448-4.222-2.029-10.29-4.226-10.926-1.346-.39-2.549-.13-3.063.66-.586.901-.405 2.819 2.652 5.501-.503.342-.472.831.04 1.207-.999.373-1.46.545-1.89.42-1.03-.006-3.376-.807-4.561-.807-1.745 0-2.771.583-3.111 1.753ZM4.205 22.68h16.24v-6.081H4.205v6.081Zm1.015-8.108h15.733L25.52 8.49H9.787L5.22 14.572ZM26.535 2.408h-16.24v4.055h16.24V2.408Zm1.015 6.758-4.06 5.406h8.12l-4.06-5.406Zm5.075 7.433h-10.15v21.192a11.78 11.78 0 0 1 2.157.06 16.02 16.02 0 0 1-.127-1.994c0-5.148 2.032-11.318 7.245-13.498-.179-.237 1.15-.421.875-.549v-5.211Zm18.94 7.587c-2.18-1.046-4.807-.615-7.666 1.237-.092.98-.28 1.95-.561 2.895.217-.132.416-.018.593-.467.326-.33.831-.4 1.233-.168.571.447.685 1.112.224 1.583a5.08 5.08 0 0 1-3.628 1.523c-1.383 0-2.01-.562-3.628-1.524-.462-.47-.347-1.135.224-1.582a1.007 1.007 0 0 1 1.222.158c.408.416.93.711 2.282.843-.544-.234-.357-1.294-.214-1.959-.19-.02-.37-.094-.52-.212-3.441-2.75-6.613-3.554-9.171-2.326-3.191 1.531-5.42 6.33-5.42 11.67.002.787.068 1.572.199 2.348.757.163 1.574.372 2.46.629 4.112 1.406 11.285 4.387 17.053 7.601a79.417 79.417 0 0 1 3.363 1.976c4.236-1.975 7.375-7.266 7.375-12.554 0-5.34-2.229-10.139-5.42-11.671Zm-4.259-5.56c-1.812-.004-3.485-.968-4.394-1.696-.182-1.152-.182-1.539 0-1.16.906-2.26 2.581-3.226 4.394-3.226 1.812 0 3.487.966 4.394 3.226.182-.379.182.008 0 1.16-.91.728-2.583 1.692-4.394 1.696Zm0-4.054c-.866.001-1.69.37-1.926 1.013.235.645 1.06 1.014 1.926 1.014.866 0 1.691-.369 2.268-1.014a3.056 3.056 0 0 0-2.268-1.013Z"/></svg>