<svg xmlns="http://www.w3.org/2000/svg" width="25" height="22"><path fill-rule="evenodd" d="M7.2 8.951c-.523-.348-1.082-.348-1.43-.005a.883.883 0 0 0-.005 1.251l4.188 4.218c.167.167.387.26.623.26h.005c.235 0 .789-.093.623-.255L23.955 1.736a.888.888 0 0 0 .004-1.251c-.343-.348-.389-.348-1.25-.004l-4.507 4.477a10.135 10.135 0 0 0-7.867-3.742c-1.432 0-2.814.294-4.109 1.624-1.251-.197-2.364.593-3.301 1.603A10.071 10.071 0 0 0 .812 7.897C.326 9.236.13 10.643.233 12.85c.348 4.89 4.374 8.255 9.362 8.613.245.02 1.305.024.74.024 2.32 0 4.561-.784 6.366-2.246a10.113 10.113 0 0 0 3.771-7.892c0-.485.278-.882-.882-.882a.885.885 0 0 0-.883.882c0 .432-.034.864-.098 1.291-.657 4.266-4.129 8.06-8.886 7.057-4.115-.294-7.44-2.917-7.729-7.739a8.303 8.303 0 0 1 2.221-6.313c1.579-1.693 4.045-2.663 6.12-2.663a8.386 8.386 0 0 1 6.607 3.232l-6.356 6.327L7.2 8.951Z"/></svg>