<svg xmlns="http://www.w3.org/2000/svg" width="28" height="20"><path fill-rule="evenodd" d="M27.801 9.997a.964.964 0 0 1 .128.358v.003c.062.49-.439.522-.93.641-2.298.553-5.464.152-8.289 7.693-.862.486-1.425.728-1.93.531-.524-.033-.784-.796-.554-1.3 2.074-3.958 3.638-5.703 5.358-6.924H.999a.999.999 0 1 1 0-2h20.593C19.87 7.977 18.33 6.35 16.226 2.71c-.23-1.142.03-1.735.554-1.939.505-.196 1.068.045 1.93.531 2.825 7.541 5.991 7.143 8.289 7.696.491.119.992.148.93.638v.003a.964.964 0 0 1-.128.358Z"/></svg>