<svg xmlns="http://www.w3.org/2000/svg" width="17" height="18"><path fill-rule="evenodd" d="M13.279 11.495a3.228 3.228 0 0 0-2.603 1.33L6.624 10.13c.255-.68.255-1.428 0-1.9l4.052-2.902a3.225 3.225 0 0 0 4.071.945 3.21 3.21 0 0 0 1.577-3.863C15.826.911 14.311.5 12.748.249c-1.562.254-2.338 1.604-2.278 3.183.06.118.18.235.36.352L5.727 6.681A3.234 3.234 0 0 0 2.25 6.13C1.83 6.647.331 7.802.331 9.77c0 .581 1.499 1.736 1.919 2.46 1.166.311 2.529.095 3.477-.759l5.103 2.899c-.18.115-.3.233-.36.35 0 1.53.365 2.481 1.96 2.98.82.499 2.21.223 3.135-.6.924-.32 1.2-2.409.7-3.614a3.231 3.231 0 0 0-2.986-1.991Zm0-9.675c.654 0 1.243.394 1.493.995.448.603.112 1.297-.35 1.758-.462.767-1.157.599-1.761.35-.091-.251-.998-.083-.998-1.491 0-.89.724-1.612 1.616-1.612Zm-9.695 8.869c-.654 0-1.243-.393-.674-.996-1.069.217-.931-1.296-.469-1.757a1.618 1.618 0 0 1 1.761-.349c.604.249.998.838.998 2.183 0 .197-.724.919-1.616.919Zm9.695 5.644c-.653 0-.909-.393-1.493-.996-.25-.602-.112-.917.351-1.757a1.614 1.614 0 0 1 1.761-.349c.604.249.997 1.449.997 1.489 0 .891-.723 1.613-1.616 1.613Z"/></svg>