<svg xmlns="http://www.w3.org/2000/svg" width="20" height="21"><path fill-rule="evenodd" d="M14.827 20.72h-.038c-.809 0-3.46-1.133-5.257-2.088-1.601-.851-3.168-2.06-4.533-3.498C2.208 12.195.623 8.754.748 5.916.733 5.408.76 2.66 3.45 1.193l-.305-.064.111.741C4.25.711 5.368.917 6.404 1.667c1.378.999 2.37 2.769 2.309 4.118-.044.974-.499 1.583-.8 1.987-.112.15-.228 1.008-.244.382-.014.066.02.246.16.535.889 1.821 3.061 3.949 5.016 4.441.088-.156.263-.279.382-.363.442-.313 1.109-.784 2.046-.427.929.52 1.86.289 2.927 1.403l.046.048.039.052c1.207 1.596 1.554 2.987 1.029 4.134-.569 1.247-2.025 1.931-4.449 2.713l-.038.03ZM3.18 5.851l.06.07-.05.059c-.286 2.205 1.103 5.96 3.456 7.592 2.503 2.636 5.53 4.215 8.106 4.23 2.154-.15 2.468.168 2.497-.462.103-.531-.03-1.128-.735-2.075-.846-.87-1.259-.959-1.366-.965.652-.007-.322.117-.609.319-.407.288-.964.682-1.727.671l-.057-.001-.057-.007c-1.799.448-3.364-.971-4.238-2.092-1.522-1.284-2.233-2.607-2.672-3.506-.843-1.729-.125-2.693 1.142-3.269-.602-.315-.498-.466-.486-.733.021-.455-.516-1.555-.734-2.176-.848-.152-1.229-.381-1.556-.322C2.967 4.53 3.15 5.762 3.18 5.851Z"/></svg>