<svg xmlns="http://www.w3.org/2000/svg" width="23" height="22"><path fill-rule="evenodd" d="m22.411 11.238-1.95 8.573c-.292 1.298-1.299 2.309-2.291 2.309H4.965c-1.146 0-2.152-1.016-2.444-2.309L.575 11.238c-.229-1.01-.009-2.061.598-2.816.481-.602 1.137-.935 2.027-.935h1.442C4.794 3.328 7.809 0 11.493 0s6.699 3.328 6.852 7.487h1.621c.71 0 1.366.333 1.847.935.607.755.827 1.806.598 2.816ZM11.493 1.832c-2.678 0-4.87 2.511-5.014 5.655h10.028c-.144-3.148-2.336-5.655-5.014-5.655Zm8.473 7.489H3.2c-1.002 0-.94 1.055-.836 1.509l1.945 8.576c.099.44.382.773.656.773H18.21c.085 0 .368-.333.467-.773l1.945-8.576c.104-.454.23-1.509-.656-1.509Zm-4.142 9.384a.913.913 0 0 1-.916-.916V12.61c0-1.056.408-1.465.916-1.465s.917.413.917 1.465v5.179a.914.914 0 0 1-.917.916Zm-4.439 0a.914.914 0 0 1-.916-.916V12.61c0-1.056.409-1.465.916-1.465.503 0 .917.413.917 1.465v5.179a.914.914 0 0 1-.917.916Zm-4.443 0c-.508 0-.692-.408-.692-.916V12.61c0-1.056.184-1.465.692-1.465s.921.413.916 1.465v5.179a.913.913 0 0 1-.916.916Z"/></svg>