<svg xmlns="http://www.w3.org/2000/svg" width="38" height="26"><path fill-rule="evenodd" d="M37.801 12.998a.96.96 0 0 1 .128.357v.003a.976.976 0 0 1-.744 1.072c-2.299.553-8.65 2.722-11.475 10.263-.862.486-1.425.728-1.93.531-.524-.034-.784-.797-.554-1.3 2.495-5.472 6.327-8.383 9.439-9.925H.999a.999.999 0 1 1 0-2H32.67c-3.113-1.541-6.948-4.451-9.444-9.269-.23-1.161.03-1.753.554-1.957.505-.198 1.068.044 1.93.53 2.825 7.541 9.176 9.817 11.475 10.262.49.118.806.582.744 1.073v.002a.964.964 0 0 1-.128.358Zm-2.806-.023c0 .009.004.016.004.024 0 .701-.004.131-.004.201.155-.06.385.3.585-.202-.21-.007-.43-.016-.585-.023Z"/></svg>