<svg xmlns="http://www.w3.org/2000/svg" width="57" height="59"><path fill-rule="evenodd" d="m56.558 36.115-5.384 20.441v.002c-.296 1.101-1.428 1.753-2.53 1.612L28.22 52.594h-.001c-1.102-.296-1.756-1.426-1.461-1.924l5.431-20.999a2.1 2.1 0 0 1 2.53-1.506l20.423 5.423c1.084.314 1.715 1.692 1.416 2.527Zm-22.187-5.633L29.67 50.38l19.73 5.227 4.895-19.829-19.924-5.296ZM47.194 42.25c-.229-.071-.513-.025-.778-.098a.99.99 0 0 1-.627-.394 3.099 3.099 0 0 1-.313-.881 3.685 3.685 0 0 0-.743-1.587 2.755 2.755 0 0 0-1.427-.834 2.903 2.903 0 0 0-2.623.486 5.204 5.204 0 0 0-1.694 3.001 6.038 6.038 0 0 0-.22 2.319c.065.605 1.081 1.175.719 1.634.417.371.926.623 1.474.729a2.991 2.991 0 0 0 1.857 0 3.179 3.179 0 0 0 1.462-1.158c.152-.247.344-.367.568-.649.991-.163.533-.201.801-.105.274.067.509.243.65.487.148.243.186.538.104.91-.115.324.466.718-.591 1.06-.323.413.157.765-1.161 1.043a4.561 4.561 0 0 1-1.775.672 5.593 5.593 0 0 1-2.24-.174c.063-.146-1.116-.356-1.537.149-.555-1.013-.97-1.322-1.329-1.69a4.825 4.825 0 0 1-.882-1.274 5.98 5.98 0 0 1-.464-1.438 6.503 6.503 0 0 1-.105-1.588 8.258 8.258 0 0 1 .279-1.68 7.534 7.534 0 0 1 1.079-2.411 5.606 5.606 0 0 1 1.683-1.599c1.139-.39 1.364-.638 2.112-.73.777-.093 1.917-.034 2.32.174a5.643 5.643 0 0 1 2.321 1.159 4.721 4.721 0 0 1 1.381 1.877c.236.544.297 1.147.174 1.727-.069.267-.24.495-.475.863Zm-5.362-18.09-19.669 7.574a2.067 2.067 0 0 1-2.681-1.16l-7.786-19.7c-.42-1.06.1-2.257 1.16-2.677L32.584.479c1.06.251 2.251.109 2.68 1.159l7.729 19.701c.419 1.059-.1 2.258-1.161 2.821ZM33.199 2.762 14.5 10.306l7.048 19.168 19.193-7.532-7.542-19.18Zm-9.075 7.602a1.96 1.96 0 0 1 1.578-.625c.25.033.488.125.696.761.206-.357.397-.198.569-.02l.685.742 5.802 6.108c.334.304 1.216.665.824 1.065.115.27.115.576 0 .846-.123.268-.342.48-.615.591a1.095 1.095 0 0 1-.499.082c-.044-.014-.299-.061-.429-.14a2.532 2.532 0 0 1-.476-.394l-.499-.498-1.091-1.159-3.819 1.797v1.657c-.739.453-.06 1.683-.858 1.355-.098.282-.327.768-.615.58.573.116-.599.116-.882 0-.278.038-.502-.307-.615-.58-.06-.164-.095-.335-.104-.312-.016-.383-.035-.65-.058-.997v-9.306c-.005-.295.022-.591.081-.557.054-.57.166-.8.325-.996Zm1.857 7.185 3.365-1.321-3.528-3.94.163 5.261Zm.419 18.218v21.114c0 1.319-.61 2.063-2.462 2.063H2.807c-1.141 0-2.066-.744-2.066-2.063V35.767c0-1.139.925-2.063 2.066-2.063h21.131c1.852 0 2.462.924 2.462 2.063Zm-2.717.453H3.62v20.394h20.063V36.22Zm-13.542 3.51h3.852a9.146 9.146 0 0 1 1.497.105c.411.062.805.555 1.161.416.286.173.541.392.754.649.216.259.385.553.499.87.296 1.12.886.656.876.996.21 1.178-1.407 2.934-2.512 2.654a2.957 2.957 0 0 1 2.39 2.955c.009.855-.172 1.284-.522 1.831-.342.517-.831.92-1.404 1.159a4.986 4.986 0 0 1-1.276.325c-.534.083-1.073.134-1.613.15h-3.702a1.531 1.531 0 0 1-1.172-.359 1.607 1.607 0 0 1-.337-1.159v-9.086c-.041-.416.084-.833.348-.466.324-.96.743-1.085 1.161-1.04Zm3.539 10.267c1.656 0 2.483-.595 2.483-1.784a1.455 1.455 0 0 0-.615-1.321 3.621 3.621 0 0 0-1.926-.418h-2.518l.356 3.523h2.22Zm-.394-5.33c.478.017.956-.042 1.415-.174.629-.112.607-.349.766-.66.139-.236.212-.503.209-.273.049-.988-.211-1.452-.416-1.663-.868-.234-1.543-.336-1.84-.301h-2.316l.356 3.071h1.826Z"/></svg>