<svg xmlns="http://www.w3.org/2000/svg" width="16" height="21"><path fill-rule="evenodd" d="M9.216 19.52c.364.315-.48.83-.833.83-.083 0-.675-.515-.833-.83C7.5 16.46.936 13.482.936 7.929c0-4.11 3.341-7.455 7.447-7.455 4.111 0 7.616 3.414 7.616 7.525 0 5.455-5.719 8.24-6.783 11.521ZM8.382 2.68c-3.223 0-5.383 2.447-5.383 5.319 0 3.53 4.431 6.409 5.385 9.244 1.093-2.785 5.592-5.708 5.592-9.314 0-2.609-2.097-5.249-5.594-5.249Zm.005 8.506c-.697 0-2.507-.795-3.012-2.013-.504-1.218-.225-2.62 1.445-3.553.32-.932 1.597-1.211 2.815-.707a3.261 3.261 0 0 1-1.248 6.273Zm0-4.658c-.945 0-1.395.847-1.395 1.469 0 1.169.575 1.348 1.433 1.325-.488.013 1.359.17 1.359-1.396a1.4 1.4 0 0 0-1.397-1.398Z"/></svg>