<svg xmlns="http://www.w3.org/2000/svg" width="51" height="55"><path fill-rule="evenodd" d="M47.499 37.974h-3.953c-.576 0-2.635-1.187-2.635-2.637v-5.538H36.36c-2.564 2.835-6.45 4.615-10.601 4.615-4.15 0-8.037-1.715-10.277-4.615h-4.809v3.758c0 2.143-1.252 2.637-2.833 2.637H4.19c-1.752 0-3.004-.494-3.004-2.637v-7.318c0-3.56 1.713-7.384 6.654-7.384h7.642a12.26 12.26 0 0 1 3.755-3.032v-4.615a2.643 2.643 0 0 1 2.635-2.637h2.636V2.637h-4.81c-.298 0-1.185-.527-1.185-1.186 0-.66.887-1.187 1.185-1.187h11.99c.659 0 1.186.527 1.186 1.187a1.18 1.18 0 0 1-1.186 1.186h-4.809v5.934h2.569c1.45 0 3.392 1.186 3.392 2.637v4.483c.825.791 2.64 1.911 3.52 3.164h4.551v-6.856c0-1.451 2.059-2.637 2.635-2.637h3.953a2.643 2.643 0 0 1 2.635 2.637v23.338a2.643 2.643 0 0 1-2.635 2.637Zm.198-25.975c0-.066-.066-.198-.198-.198h-3.953c-.065 0-.197.066-.197.198v8.109a1.18 1.18 0 0 1-1.186 1.186h-6.72c.037 0-.79.676-.988-.527-.922-1.318-2.306-2.439-4.018-3.165a1.216 1.216 0 0 1-.725-1.12v-5.274c0 .552-.066-.108-.132-.108h-7.642c-.066 0-.197.66-.197.108v5.34c0 1.352-.264.922-.581 1.12-1.791.791-2.65 1.846-3.965 3.099-.198 1.203-.593.527-.988.527H7.972c-3.558 0-4.282 2.703-4.282 4.945v7.252c0 .066.132.198 1.16.198h3.056c.263 0 .395-.132.395-.198v-4.945a1.18 1.18 0 0 1 1.186-1.186h6.654c.395 0 .79.197.988.527 1.713 2.571 5.571 4.087 8.63 4.087 3.689 0 6.983-1.581 8.696-4.087.198-.33 1.025-.527.988-.527h6.72a1.18 1.18 0 0 1 1.186 1.186v6.791c0 .065.066.197.197.197h3.953c.066 0 .198-.065.198-.197V11.999ZM5.996 38.765c.461 0 .856.198 1.504.593.208 1.253 3.766 7.779 3.766 10.219 0 2.9-2.372 5.274-5.27 5.274-2.686 0-5.337-2.374-5.271-5.274 0-2.44 3.492-8.966 4.216-10.219.198-.068.593-.593 1.055-.593Zm0 13.712c1.581 0 2.898-1.318 2.898-2.9 0-1.055-1.449-4.285-2.898-7.055-1.45 2.77-2.026 6-2.026 7.055 0 1.582.444 2.9 2.026 2.9Z"/></svg>