<svg xmlns="http://www.w3.org/2000/svg" width="28" height="20"><path fill-rule="evenodd" d="M26.999 10.999H6.415c1.719 1.221 3.554 2.966 5.358 6.924.527.504-.03 1.267-.554 1.3a1.018 1.018 0 0 1-1.291-.531c-3.464-7.541-6.63-7.14-8.929-7.693-.49-.119-.299-.151-.309-.641l.01-.003c.17-.132-.564-.25-.502-.358-.062-.108.672-.226.502-.358l-.01-.003c.01-.49-.181-.519.309-.638 2.299-.553 5.465-.155 8.929-7.696a1.019 1.019 0 0 1 1.291-.531c.524.204 1.081.797.554 1.939-1.807 3.64-3.644 5.267-5.366 6.289h20.592a1 1 0 1 1 0 2Z"/></svg>