<svg xmlns="http://www.w3.org/2000/svg" width="39" height="28"><path fill-rule="evenodd" d="M27.769 12.727a7.741 7.741 0 0 1 2.968-.59c4.613 0 7.782 3.496 7.782 7.807 0 4.31-3.169 7.806-7.782 7.806-4.239 0-7.377-3.409-7.779-6.86-.259-2.355-.788-10.274 9.457-20.353.717-.384 1.858-.405 2.547.05.69.72.669 1.864-.049 2.556-3.173 3.722-5.973 6.976-7.144 9.584Zm2.968 11.398c2.663 0 4.168-1.872 4.168-4.181 0-2.31-1.505-4.182-4.168-4.182a4.174 4.174 0 0 0-4.167 4.182 4.174 4.174 0 0 0 4.167 4.181Zm-14.462-4.181c0 4.31-3.485 7.806-7.782 7.806-4.239 0-7.702-3.409-7.78-6.86C.455 18.535.226 10.616 10.17.537c.717-.384 2.11-.405 2.548.05.69.72.668 1.864-.05 2.556-3.839 3.722-5.973 6.976-7.143 9.584a7.697 7.697 0 0 1 2.968-.59c4.297 0 7.782 3.496 7.782 7.807Zm-11.95 0a4.174 4.174 0 0 0 4.168 4.181 4.174 4.174 0 0 0 4.168-4.181 4.175 4.175 0 0 0-4.168-4.182 4.174 4.174 0 0 0-4.168 4.182Z"/></svg>