<svg xmlns="http://www.w3.org/2000/svg" width="17" height="18"><path fill-rule="evenodd" d="M16.16 12.58c-1.989-3.186-4.81-3.996-4.971-3.944a4.742 4.742 0 0 0 1.944-3.828C13.133 2.192 11.3.63 8.385.63c-2.618 0-4.748 1.562-4.748 4.178 0 1.57.766 2.963 1.944 3.828.154-.052-2.982.758-4.827 3.944-.123.213-.123.98 0 .689 1.531 2.645 4.387 4.559 7.631 4.559 3.243 0 6.1-1.913 7.775-4.559-.02.291-.02-.476 0-.689ZM8.385 1.634c1.859 0 3.173 1.317 3.173 3.174 0 1.858-1.315 3.349-3.174 3.892-1.855-.718-3.056-2.592-3.056-3.892 0 0 .219-3.174 3.057-3.174ZM2.54 12.95c.689-1.461 2.944-3.237 5.845-3.237s5.017 1.833 5.938 3.213c-.915 1.267-3.445 3.368-5.938 3.368.001 0-3.408.246-5.845-3.344Z"/></svg>