<svg xmlns="http://www.w3.org/2000/svg" width="17" height="18"><path fill-rule="evenodd" d="M13.557 2.2h-.336V1.166c0-.52-.353-.857-.857-.857-.505 0-.858.337-.858.857V2.2H5.924V1.166c0-.52-.337-.857-.264-.857-1.115 0-1.451.337-1.451.857V2.2h-.774C1.805 2.2.426 3.397.426 5.25v8.854c0 1.628 1.379 3.003 3.009 3.003h10.122c1.631 0 3.01-1.375 3.01-3.003V5.25c0-1.853-1.379-3.05-3.01-3.05ZM3.435 3.734h10.122c.69 0 1.295.602 1.295 1.516v.967H2.141V5.25c0-.914.605-1.516 1.294-1.516Zm10.122 11.645H3.435c-.689 0-1.294-.605-1.294-.509V7.928h12.694v6.942c.017-.096-.588.509-1.278.509Z"/></svg>