<svg xmlns="http://www.w3.org/2000/svg" width="19" height="19"><path fill-rule="evenodd" d="m17.561 14.544.719 2.876c.065.259-.011.535.51.724-.9.189-1.175.266-1.436.201l-2.877-.719c-.976.493-2 .742-3.048.742-1.263 0-1.979-.268-2.479-.796-1.811-.182-2.597-1.33-3.191-2.372a.758.758 0 0 1 .047-.821c-.376-.116-.226-.254-1.112-.437l-2.876.719a.731.731 0 0 1-.185.022c-.201 0-.395-.077.297-.223-1.027-.19-1.103-.465-1.038-.725l.719-2.875c-.493-.976-.742-2-.742-3.047C.869 4.25 3.952.942 7.742.942c3.114 0 5.721 2.428 6.563 4.938a.76.76 0 0 1 .828-.05c1.043.593 1.841 1.379 2.374 2.335.843.949.796 2.07.796 3.333 0 1.046.227 2.07-.742 3.046ZM7.742 2.47a5.35 5.35 0 0 0-5.346 5.343c0 .882.234 1.75 1.504 2.578-.716.169-.69.367-.736.556l-.482 1.924 1.926-.481a.757.757 0 0 1 .556.074c.828.459 1.696.693 2.578.693 2.948 0 6.148-2.398 6.148-5.344 0-2.947-3.2-5.343-6.148-5.343Zm6.822 4.825c.013.174.052.341.052.518 0 3.789-3.083 6.87-6.874 6.87-.167 0-.334-.017-.5-.03.921 1.455 2.284 2.188 4.187 2.188.883 0 1.75-.233 3.371-.694-.623.393-.424.123-.236.593l1.925-.185.311-1.924c-.839-.188-.813-.387.02.119-.278-1.503-.045-2.37-.045-3.252 0-1.914-.415-3.282-2.211-4.203Zm-4.224 2.808H5.451c-.161 0-.764-.341-.764-.763s.603-.763.764-.763h4.889c.115 0 .457.341.457.763s-.342.763-.457.763Zm0-2.603H5.451c-.161 0-.764-.792-.764-1.213 0-.422.603-.764.764-.764h4.889c.115 0 .457.342.457.764 0 .421-.342 1.213-.457 1.213Z"/></svg>