<svg xmlns="http://www.w3.org/2000/svg" width="61" height="59"><path fill-rule="evenodd" d="m60.251 36.965-2.431 8.723a3.517 3.517 0 0 0 .008 1.917l2.725 9.915c.213.268-.362 1.031-1.129 1.031H48.753c-.491 0-.93-.305-1.102-.765l-.686-1.842c-.521-1.397-1.227-2.453-2.227-3.559-.33-.185-.615-.68-.84-.997-1.12-1.574-1.747-3.104-1.898-4.734a24.486 24.486 0 0 1-11.437 2.821c-4.064 0-8.017-.992-11.063-2.884-.637 1.652-1.265 3.203-2.399 4.797-.225.317-.51.812-.84.997-1.001 1.106-1.706 2.162-1.921 3.559l-.993 1.842c-.171.46-.611.765-1.102.765H1.575c-.37 0-.717-.173-.94.279-.222-1.042-.292-1.424-.19-1.31l2.725-9.915c.18-.626.184-1.288.008-1.917L.745 36.96c-.551-1.82-.437-4.057.915-5.74 0-.02 0-.02.01-.03l2.839-8.665a4.325 4.325 0 0 1 1.952-2.181 24.375 24.375 0 0 1 6.207-12.158C16.2 4.638 20.257 2.183 24.974 1.84c.633-.903 1.265-.511 1.412.121a1.174 1.174 0 0 1-.878 1.411 22.105 22.105 0 0 0-11.126 6.423c-2.671 2.844-4.523 7.055-5.41 10.043.309.032.617.096.913.482 2.338.479 3.59 3.14 2.684 5.43l-2.595 6.549a4.403 4.403 0 0 1 2.898-.186c1.34.363 2.598 1.501 3.041 2.819l2.361 6.994c.214.599.395 1.21.527 1.832a22.098 22.098 0 0 0 11.762 3.367c4.123 0 8.127-1.131 11.615-3.277.134-.652.323-1.293.547-1.922l3.125-6.994c.031-2.365 2.907-3.596 5.41-2.633l-2.83-6.549c-.939-2.374.441-5.117 2.902-5.784.267-.07.543-.119.819-.139-.893-3.287-2.761-7.233-5.458-10.085a22.095 22.095 0 0 0-11.269-6.414 1.173 1.173 0 0 1-.891-1.401c.143-.634.771-1.033 1.405-.567 4.775.743 9.292 3.195 12.464 6.768a24.353 24.353 0 0 1 6.277 12.296 4.325 4.325 0 0 1 1.811 2.102l3.442 8.664v.03c.759 1.683.872 3.92.319 5.745ZM16.48 42.688l-2.792-6.995c-.353-.967-1.52-1.579-2.512-1.322-.756.295-1.829 1.515-1.492 2.799l1.479 5.43c.18.016-.183.686-.794.866-.623.185-.459-.171-1.461-.793L7.43 37.687a9.27 9.27 0 0 1 .248-5.979l2.704-6.823c.432-1.089-.202-2.345-.862-2.65-1.42-.258-1.91.253-2.831 1.172l-3.441 8.492c-.566 1.401-.65 2.973-.148 4.426l2.344 9.255c.292.526.287 1.632-.014 2.676l-2.293 7.946h8.291l.384-1.03c.553-1.983 1.795-3.356 2.703-4.361.281-.311.865-.579.669-.541 1.665-2.583 1.75-4.926 1.296-7.582Zm41.271-10.789-3.441-8.492c-.377-.931-1.409-1.421-2.364-1.172-1.128.305-1.761 1.562-1.33 2.65l2.703 6.817c1.281 1.897.831 4.036.248 5.988l-.657 4.983c-1.003.622-1.658.978-2.28.793-.44-.18-.975-.85-.794-.866l1.477-5.4c.328-1.278.187-2.454-1.387-2.8-1.019.41-2.247.286-2.617 1.295l-2.359 6.993-.007.021c-.264.734-.439 1.4-.537 2.036-.002.009-.005.017-.006.026-.288 1.909.164 3.499 1.415 5.499.145-.038.387.23.668.541.909 1.005 2.15 2.378 2.703 4.361l.384 1.03h8.291l-2.292-7.946c-.302-1.044-.307-2.15-.015-2.676l2.433-9.25a6.883 6.883 0 0 0-.236-4.431ZM35.102 12.812v7.185h7.191c.65 0 1.176.527 1.176 1.176v7.129c0 .649-.526 1.174-1.176 1.174h-7.191v7.186c0 .649-.527 1.175-1.176 1.175H26.79c-.65 0-1.176-.526-1.176-1.175v-7.186h-7.192a1.175 1.175 0 0 1-1.176-1.174v-7.129c0-.649.527-1.176 1.176-1.176h7.192v-7.185c0-.649.526-1.174 1.176-1.174h7.136c.649 0 1.176.525 1.176 1.174Zm-2.352 8.361v-7.186h-4.784v7.186c0 .648-.527 1.175-1.176 1.175h-7.192v4.779h7.192c.649 0 1.176.527 1.176 1.175v7.186h4.784v-7.186c0-.648.526-1.175 1.176-1.175h7.192v-4.779h-7.192c-.65 0-1.176-.527-1.176-1.175ZM31.12 2.704c-.702.245-1.396-.044-1.642-.014-.247-1.211.044-1.911.635-2.156a1.187 1.187 0 0 1 1.535.636c.247.591-.045 1.291-.528 1.534Z"/></svg>